<svg version="1.1" id="Layer_1" xmlns="http://www.w3.org/2000/svg" x="0" y="0" viewBox="0 0 191.4 127.6" xml:space="preserve"><style type="text/css">.st1{fill:#006db8}</style><path d="M173.3 27c-.6-3.2-1.5-6.4-2.9-9.3 0-.1-.1-.1-.1-.2-.2-.4-.4-.9-.7-1.3l-.9-1.5c-.2-.2-.3-.5-.5-.7v.1c-2.4-3.4-5.7-5.2-9.8-5.6 0 0-1.5-.1-1.4-.1 0-5.6-4.2-8.8-3.8-8.4 1.3 1.8 2 5 1.4 8.5-1.8.4-4.1 1.3-5.5 2.4-.9.5-1.8 1.1-2.8 1.9-1.2-1-2.6-1.5-4.2-1.5-2.2 0-4.6.9-7.4 2.6-1.1.6-2.3 1.2-3.4 1.9-11.8 8.1-20.3 21.2-25.7 35.3-.4.9-.8 1.9-1.2 2.8-.2.5-.4 1-.7 1.6-.9 2.2-1.6 4.4-2.3 6.5-.3-8.1-4.5-14.3-10.6-18.1 3.9-3 7.2-6.9 9.4-11.3 7.7-15-4.1-21.8-16.3-21.8-5.5 0-12.9 1.4-19 4.2-1.1 3-1.9 6.1-3.4 9.1-.7 1.4-2.5 4.9-.5 4.9 1.5 0 2.3-1 3.1-2.3 3-4.6 11.7-5.8 15.1-5.8 7.9 0 16.2 4.6 11.1 14.6-1.2 2.5-2.5 4-4.2 6.1-2.8-1.2-5.9-1.9-9.4-1.9-4.8 0-12.8 1.6-16 8-2.8 5.5 2.6 7.2 6.7 7.2 5.3 0 12.6-3 18.3-7.1 5.8 5.5 6 13.2.3 24.3-9.4 18.5-28.5 29.6-44.9 29.6-11.2 0-24.1-7.1-16.8-21.4.8-1.6 1.5-2.6 2.6-3.8 5.5-2.6 14.1-6.4 19-6.4 4.4 0 6 3.5 5.2 7.7h3.7c4.4-10.3 1.8-18.2-8.2-18.2-4.9 0-11.2 2.5-17.6 4.8-6 2.3-12.3 4.6-17.6 4.6-9.3 0-6.8-8.1-5.1-10 3.9-.4 8.7-4.3 10.7-8.2 1.3-2.6 1.6-5.2-1.3-5.2-4.9 0-10.8 7.8-12.8 11.9-5.5 10.7-3 22.3 7.6 22.3 2.8 0 6.3-.9 9.4-1.9-9.9 21.3 7.6 30.6 25.1 30.6 29.2 0 46.4-18.2 52.7-30.6.4-.7.7-1.5 1.1-2.2-.3 3-.4 5.8-.2 8.6.2 3 .8 5.9 1.6 8.6 1.4 4.4 4.4 8.1 8.9 11.2 4.3 3 8.6 4.4 13 4.4 2.7 0 5.3-.4 8-1.3 13.2-3.7 25.1-16.4 33.2-31.6h-3.9c-.6.1-1.2.2-1.9.2-2.2 0-4.1-.7-5.5-1.9-.2 3.6-2.5 6.1-5.9 6.6-1.3 1.9-2.7 3.8-4.1 5.6-3.1 4-6.2 7.4-9.1 10-3.2 2.9-6.4 4.9-9.4 6-1.9.7-3.7 1-5.5 1-5.4 0-8.9-2.5-10.5-7.5-.4-1.3-.6-2.7-.8-4.2-.3-3.6.2-7.9 1.4-13 1.5-6.1 4.1-13.3 7.8-21.5 7.1-15.8 14.8-27 22.9-33.9-.9 2-1.4 4.3-1.6 6.7-.3 6.8 4.5 5.4 7.5 3 3.9-3.1 8.8-10 11-17.5 11.5 3.7 9.7 22.8 6.1 33.1-.2.6-.4 1.3-.7 2-.8 2.2-1.6 4.4-2.5 6.5 3 0 5.4 1.1 6.8 2.9l.9-.7c1.2-.9 2.7-1.6 4.4-1.9 3.2-10.5 4.3-21.1 2.6-30.1zm-100 23.5c-1.6 0-4.3-.6-3.2-2.9 1.7-3.3 6.4-3.8 8.6-3.8 2.6 0 4.9.6 6.9 1.4-3.8 3.3-8.5 5.3-12.3 5.3zm74-25.2c-1.2 1-3.4 2-3.3-.9v-.2c.3-4 2.7-6.1 4.3-7.4 1.9-1.5 5.1-2 5.1-1.9-1 3.6-3.6 8.3-6.1 10.4z" fill="#85c446"/><path class="st1" d="M147.7 53.7c-1.1 0-2 .8-2 1.9 0 1 .8 1.9 2 1.9s2-.8 2-1.9c0-1.2-.8-1.9-2-1.9zm-1.5 19.5c0 1.4-.6 2.1-1.8 2.1-.7 0-1.3-.2-1.8-.5l-.9 2.3c.7.5 1.8.8 3 .8 3 0 4.6-1.8 4.6-4.8V59.6h-3.1v13.6zm12.3-13.7h-.9c-1.8.1-3.5.7-4.7 1.6l1.2 2.3c.6-.5 1.4-.9 2.2-1.1.6-.2 1.2-.2 1.8-.2 2.2 0 3.3 1.1 3.3 2.9v.2H158c-1.4 0-2.5.2-3.3.6-1.6.7-2.2 1.9-2.2 3.4 0 .2 0 .5.1.7.4 1.9 2.2 3.3 4.9 3.3 2 0 3.4-.6 4.2-1.8V73h2.9v-7.8c-.1-3.9-2.3-5.7-6.1-5.7zm2.9 9.3c-.5 1.4-1.8 2.1-3.4 2.1-1.6 0-2.5-.7-2.5-1.8 0-1 .6-1.8 2.7-1.8h3.2v1.5zm12.2-9.3c-1.3 0-2.6.2-3.7.6-.7.3-1.3.6-1.9 1l.9 1.7.3.5c1-.8 2.5-1.3 4-1.3 2.2 0 3.3 1.1 3.3 2.9v.2h-3.4c-4 0-5.5 1.7-5.5 4s1.9 4 5 4c2 0 3.4-.6 4.2-1.8v1.6h2.9v-7.8c0-3.8-2.2-5.6-6.1-5.6zm3 9.3c-.5 1.4-1.8 2.1-3.4 2.1-1.6 0-2.5-.7-2.5-1.8 0-1 .6-1.8 2.7-1.8h3.2v1.5zm10-7.2v-1.9h-3V73h3.1v-6.5c0-2.7 1.5-4.1 3.9-4.1.2 0 .4 0 .7.1v-3c-2.1 0-3.8.7-4.7 2.1zm-86.1 47.8l-1 1.1 1.6 1.3-5.3 6.2 1.4 1.2 6.2-7.4zm6.6 4.5c-1.8-.9-3.7-.5-4.5 1.2-.8 1.6 0 3.3 1.7 4.1 1 .5 1.9.6 2.8.2-1 2-2.5 2.5-4.1 1.7-.6-.3-1.1-.7-1.4-1.2l-1.2.9c.4.7 1.1 1.3 2 1.7 2.5 1.2 5 .5 6.5-2.5 1.2-2.7.6-4.9-1.8-6.1zm.6 3.7c-.4.9-1.4 1.1-2.5.6-1-.5-1.4-1.4-1-2.3.4-.9 1.4-1.1 2.4-.6 1.2.5 1.5 1.5 1.1 2.3zm6.7-1c-1.9-.4-3.7.4-4.1 2.2-.4 1.8.7 3.2 2.6 3.6 1 .2 2 .1 2.7-.4-.5 2.1-1.9 3-3.6 2.6-.7-.2-1.2-.4-1.7-.9l-.9 1.2c.5.5 1.4 1 2.3 1.2 2.7.6 5-.7 5.8-3.9.6-3-.5-5-3.1-5.6zm1.4 3.4c-.2.9-1.2 1.4-2.3 1.2-1.1-.3-1.7-1.1-1.5-2 .2-1 1.1-1.4 2.2-1.2 1.2.3 1.8 1.2 1.6 2zm7 1.8l2.4-2.7v-1.2l-6.6-.2v1.5l4.4.1-2.3 2.6v1.2h.9c1.5 0 2.1.6 2.1 1.5s-.8 1.4-2.1 1.4c-1.1 0-2.1-.4-2.8-1l-.8 1.4c.9.7 2.2 1.2 3.6 1.2 2.6.1 3.8-1.3 3.9-2.9 0-1.5-.9-2.6-2.7-2.9z"/><path transform="rotate(-13.651 133.003 122.433)" class="st1" d="M131.1 121.7h3.8v1.4h-3.8z"/><path class="st1" d="M143.5 121l1.1-3.4c.6-1.7.4-2.6 0-3.4-.8-1.5-2.5-1.8-4.3-.8-1.4.7-2.3 1.9-2.5 3.1l1.6.3c.2-.9.7-1.5 1.5-1.9 1-.6 1.8-.4 2.2.4.3.5.4 1.1 0 2.3l-1.7 5 .6 1.1 6.3-3.3-.7-1.3-4.1 1.9zm3.6-12.1c-1.8 1.4-2.1 3.9-.1 6.4 1.9 2.5 4.4 2.8 6.2 1.4 1.8-1.4 2.1-3.9.1-6.4-1.9-2.4-4.4-2.8-6.2-1.4zm5.1 6.6c-1 .8-2.4.5-3.8-1.3s-1.4-3.2-.3-4c1-.8 2.4-.5 3.9 1.3 1.3 1.8 1.3 3.2.2 4zm6.1-5.6v-3.6c0-1.8-.4-2.6-1.1-3.3-1.2-1.2-2.9-.9-4.4.6-1.1 1.1-1.6 2.5-1.4 3.8l1.6-.2c-.1-.9.2-1.7.8-2.3.8-.9 1.6-.9 2.2-.3.4.4.7.9.7 2.2v5.3l.9.8 4.9-5.1-1.1-1-3.1 3.1zm7.2-10.7c-1.2-.9-2.6-.8-3.9.5l-.8-3.5-1-.7-4 5.2 1.2.9 2.6-3.5.8 3.3 1 .7.5-.7c.9-1.2 1.7-1.3 2.4-.8s.7 1.5-.1 2.5c-.7.9-1.6 1.5-2.5 1.7l.6 1.5c1.1-.3 2.3-1.1 3.1-2.2 1.8-2.1 1.4-3.9.1-4.9z"/></svg>